<?xml version="1.0" encoding="utf-8"?>
<!-- Generator: Adobe Illustrator 25.4.1, SVG Export Plug-In . SVG Version: 6.00 Build 0)  -->
<svg version="1.1" id="圖層_1" xmlns="http://www.w3.org/2000/svg" xmlns:xlink="http://www.w3.org/1999/xlink" x="0px" y="0px"
	 viewBox="0 0 22 24.2" style="enable-background:new 0 0 22 24.2;" xml:space="preserve">
<style type="text/css">
	.st0{fill:#FFFFFF;}
</style>
<g id="XMLID_468_">
	<path id="XMLID_469_" class="st0" d="M16,13.7c0,0-1.5-0.8-1.8-0.9c-0.1,0-0.2-0.1-0.4-0.1c-0.2,0-0.4,0.1-0.5,0.3
		c-0.2,0.2-0.6,0.8-0.7,0.9c0,0,0,0-0.1,0c0,0-0.2-0.1-0.3-0.1c-1.6-0.7-2.8-2.4-3-2.7c0,0,0-0.1,0-0.1c0,0,0.1-0.1,0.1-0.1
		c0.1-0.1,0.2-0.2,0.3-0.3c0,0,0.1-0.1,0.1-0.1c0.1-0.1,0.2-0.3,0.2-0.4l0-0.1c0.2-0.3,0-0.6,0-0.7c0-0.1-0.7-1.6-0.7-1.8
		C9,7.3,8.8,7.1,8.5,7.1c0,0,0,0-0.1,0c-0.1,0-0.9,0.1-1.3,0.3c-0.4,0.2-1,1-1,2.2c0,1.1,0.7,2.2,1,2.6c0,0,0,0,0,0.1
		c1.2,1.7,2.7,3,4.2,3.6c1.5,0.6,2.1,0.6,2.5,0.6c0,0,0,0,0,0c0.2,0,0.3,0,0.4,0l0.1,0c0.5,0,1.6-0.6,1.9-1.3
		c0.2-0.6,0.3-1.2,0.1-1.4C16.3,13.8,16.2,13.8,16,13.7z"/>
	<path id="XMLID_470_" class="st0" d="M11.2,1.8C5.6,1.8,1.1,6.3,1.1,11.9c0,1.8,0.5,3.5,1.4,5.1l-1.7,5.1c0,0.1,0,0.2,0.1,0.3
		c0.1,0.1,0.1,0.1,0.2,0.1c0,0,0.1,0,0.1,0l5.4-1.7c1.5,0.8,3.1,1.2,4.8,1.2c5.6,0,10.1-4.5,10.1-10.1C21.3,6.3,16.8,1.8,11.2,1.8z
		 M11.2,19.8c-1.6,0-3.1-0.5-4.4-1.3c0,0-0.1,0-0.1,0c0,0-0.1,0-0.1,0l-2.7,0.9l0.9-2.6c0-0.1,0-0.2,0-0.2c-1-1.4-1.5-3-1.5-4.7
		c0-4.4,3.6-8,8-8c4.4,0,8,3.6,8,8C19.2,16.3,15.6,19.8,11.2,19.8z"/>
</g>
</svg>
