<?xml version="1.0" encoding="utf-8"?>
<!-- Generator: Adobe Illustrator 25.4.1, SVG Export Plug-In . SVG Version: 6.00 Build 0)  -->
<svg version="1.1" id="圖層_1" xmlns="http://www.w3.org/2000/svg" xmlns:xlink="http://www.w3.org/1999/xlink" x="0px" y="0px"
	 viewBox="0 0 157 45" style="enable-background:new 0 0 157 45;" xml:space="preserve">
<style type="text/css">
	.st0{fill:#3C3C3B;}
	.st1{fill:url(#SVGID_1_);}
	.st2{fill:url(#SVGID_00000150093673917754056230000002658844643589681281_);}
	.st3{fill:url(#SVGID_00000047773393608560420660000006459659816286038444_);}
</style>
<g>
	<polygon class="st0" points="55.6,4.4 52.8,4.4 40.8,32.6 44.9,32.6 48.4,24.3 54.4,24.3 58.1,20.7 50,20.7 54.2,10.6 58.7,20.7 
		60.4,24.3 64.1,32.6 68.2,32.6 	"/>
	<path class="st0" d="M70.8,4.6l3.7,0v28h-3.7V4.6z"/>
	<path class="st0" d="M79.9,4.6h3.7v28h-3.7V4.6z"/>
	<path class="st0" d="M99.7,14.1h4.1L90.7,42h-4.1l6.3-13.4l-7.1-14.5H90l5,10.4L99.7,14.1z"/>
	<linearGradient id="SVGID_1_" gradientUnits="userSpaceOnUse" x1="105.4792" y1="23.3594" x2="126.0278" y2="23.3594">
		<stop  offset="0" style="stop-color:#6BC2C5"/>
		<stop  offset="1" style="stop-color:#C26CA8"/>
	</linearGradient>
	<path class="st1" d="M120.8,14.1h4.7l-7.6,9.1l8.1,9.4h-4.7l-5.8-6.6l-5.5,6.6h-4.6l7.8-9.4l-7.8-9.1h4.6l5.5,6.3L120.8,14.1z"/>
	<g>
		
			<linearGradient id="SVGID_00000029042044307399630050000010815337472906852257_" gradientUnits="userSpaceOnUse" x1="40.1659" y1="36.204" x2="87.7655" y2="36.204">
			<stop  offset="0" style="stop-color:#6BC2C5"/>
			<stop  offset="1" style="stop-color:#C26CA8"/>
		</linearGradient>
		<polygon style="fill:url(#SVGID_00000029042044307399630050000010815337472906852257_);" points="86.8,37.2 40.2,37.2 40.2,35.2 
			87.8,35.2 		"/>
	</g>
	<g>
		<polygon class="st0" points="96.2,35.2 126.5,35.2 126.5,37.2 95.3,37.2 		"/>
	</g>
	
		<linearGradient id="SVGID_00000145749937875813174640000016408408923241299074_" gradientUnits="userSpaceOnUse" x1="54.4199" y1="22.4947" x2="58.053" y2="22.4947">
		<stop  offset="0" style="stop-color:#6BC2C5"/>
		<stop  offset="1" style="stop-color:#C26CA8"/>
	</linearGradient>
	<polygon style="fill:url(#SVGID_00000145749937875813174640000016408408923241299074_);" points="58.1,20.7 54.4,24.3 54.4,20.7 	
		"/>
</g>
</svg>
